
<?xml version="1.0" encoding="utf-8"?>
<!-- Generator: Adobe Illustrator 16.0.0, SVG Export Plug-In . SVG Version: 6.00 Build 0)  -->
<!DOCTYPE svg PUBLIC "-//W3C//DTD SVG 1.1//EN" "http://www.w3.org/Graphics/SVG/1.1/DTD/svg11.dtd">
<svg version="1.1" id="Layer_1" xmlns="http://www.w3.org/2000/svg" xmlns:xlink="http://www.w3.org/1999/xlink" x="0px" y="0px"
	 width="185px" height="35px" viewBox="0 0 185 35" enable-background="new 0 0 185 35" xml:space="preserve">
<g enable-background="new    ">
	<path d="M56.46,13.042v-1.742h-3.9V9.246h10.218v2.054h-3.692v1.742l4.368,4.342l-1.508,1.482
		c-0.693-0.658-1.391-1.304-2.093-1.937c-0.702-0.632-1.4-1.27-2.093-1.911l-4.446,3.952l-1.43-1.481L56.46,13.042z M59.71,21.621
		h2.574v4.525H70.5v2.105H59.71V21.621z M70.292,19.334h-2.496V7.582c-0.381-0.243-0.754-0.481-1.118-0.715
		c-0.364-0.234-0.737-0.464-1.118-0.689c0.156-0.295,0.316-0.581,0.481-0.858c0.165-0.277,0.316-0.563,0.455-0.858
		c0.641,0.312,1.278,0.62,1.911,0.923s1.261,0.611,1.885,0.923V19.334z"/>
	<path d="M74.322,9.297h12.532v2.028H84.41v5.59h2.444v2.028H74.322v-2.028h2.392v-5.59h-2.392V9.297z M79.106,11.326v5.59h2.886
		v-5.59H79.106z M93.432,25.027c0,0.607-0.121,1.162-0.363,1.664c-0.243,0.504-0.572,0.932-0.988,1.287s-0.897,0.629-1.443,0.818
		c-0.546,0.191-1.122,0.287-1.729,0.287s-1.183-0.096-1.729-0.287c-0.546-0.189-1.027-0.463-1.443-0.818s-0.745-0.783-0.988-1.287
		c-0.243-0.502-0.364-1.057-0.364-1.664c0-0.605,0.121-1.16,0.364-1.664c0.243-0.502,0.572-0.932,0.988-1.287
		s0.897-0.627,1.443-0.818c0.546-0.191,1.122-0.287,1.729-0.287s1.183,0.096,1.729,0.287c0.546,0.191,1.027,0.463,1.443,0.818
		s0.745,0.785,0.988,1.287C93.311,23.867,93.432,24.422,93.432,25.027z M86.75,25.027c0,0.643,0.221,1.148,0.663,1.521
		s0.94,0.559,1.495,0.559c0.26,0,0.52-0.047,0.78-0.143c0.26-0.096,0.494-0.234,0.702-0.416s0.373-0.402,0.494-0.664
		c0.121-0.26,0.182-0.545,0.182-0.857s-0.061-0.594-0.182-0.846c-0.121-0.25-0.286-0.467-0.494-0.648
		c-0.208-0.184-0.442-0.32-0.702-0.416c-0.26-0.096-0.52-0.145-0.78-0.145c-0.277,0-0.546,0.049-0.806,0.145
		c-0.26,0.096-0.49,0.232-0.689,0.416c-0.2,0.182-0.36,0.398-0.481,0.648C86.811,24.434,86.75,24.715,86.75,25.027z M91.378,14.186
		v-2.809H88.31V9.401h3.068v-1.82c-0.381-0.243-0.754-0.481-1.118-0.715c-0.364-0.234-0.737-0.464-1.118-0.689
		c0.156-0.295,0.316-0.581,0.481-0.858c0.165-0.277,0.316-0.563,0.455-0.858L93.9,6.308v13.026h-2.522v-3.146H88.31v-2.002H91.378z"
		/>
	<path d="M98.918,9.142h4.732V6.125h2.573v3.016h4.732v2.028h-2.444c0.191,0.295,0.342,0.624,0.455,0.988s0.169,0.736,0.169,1.118
		c0,0.919-0.26,1.707-0.78,2.365c-0.52,0.659-1.23,1.11-2.132,1.353v2.497h6.085v2.08H97.566v-2.08h6.084v-2.497
		c-0.937-0.242-1.656-0.693-2.158-1.353c-0.504-0.658-0.754-1.446-0.754-2.365c0-0.798,0.199-1.499,0.598-2.106h-2.418V9.142z
		 M104.949,15.122c0.521,0,0.949-0.169,1.287-0.507s0.508-0.784,0.508-1.339s-0.17-0.997-0.508-1.326s-0.767-0.494-1.287-0.494
		c-0.537,0-0.979,0.165-1.325,0.494s-0.521,0.771-0.521,1.326s0.174,1.001,0.521,1.339S104.412,15.122,104.949,15.122z
		 M114.727,7.582c-0.365-0.243-0.733-0.481-1.105-0.715c-0.373-0.234-0.741-0.464-1.105-0.689l0.91-1.716l3.822,1.846v15.288h-2.521
		V7.582z"/>
	<path d="M133.757,17.124h-4.445v2.132h-2.496v-7.592h-5.798V9.479h8.294v1.457h4.445V8.7c-0.363-0.243-0.727-0.472-1.092-0.689
		c-0.363-0.217-0.719-0.446-1.066-0.689l0.885-1.69l3.691,1.768v11.935h-2.418V17.124z M129.312,15.017h4.445v-2.002h-4.445V15.017z
		 M138.646,7.582l-2.236-1.43l0.885-1.69l3.795,1.846v13.026h-2.443V7.582z"/>
	<path d="M146.004,11.429l-1.43-1.169l1.065-1.508c0.451,0.295,0.91,0.572,1.378,0.832c0.468,0.26,0.928,0.538,1.378,0.832v2.028
		h4.16v-1.95c-0.243-0.19-0.49-0.386-0.741-0.585s-0.498-0.394-0.74-0.585l1.065-1.508c0.468,0.295,0.937,0.577,1.404,0.845
		c0.468,0.269,0.936,0.542,1.404,0.819v9.204h-8.944V11.429z M152.556,16.786v-2.47h-4.16v2.47H152.556z M152.842,23.936
		l-1.404-1.117c0.174-0.262,0.352-0.521,0.533-0.781s0.368-0.52,0.56-0.779c0.45,0.295,0.9,0.572,1.352,0.832
		c0.45,0.26,0.91,0.537,1.378,0.832v1.793h5.148v-1.689l-1.482-1.145c0.19-0.242,0.377-0.498,0.559-0.766
		c0.183-0.27,0.368-0.525,0.56-0.768c0.45,0.295,0.91,0.572,1.378,0.832s0.927,0.537,1.378,0.832v8.736h-9.958V23.936z
		 M160.408,28.719v-2.105h-5.148v2.105H160.408z M160.616,14.706h-4.395v-2.08h4.395V7.582c-0.382-0.243-0.755-0.481-1.118-0.715
		c-0.364-0.234-0.737-0.464-1.118-0.689c0.156-0.295,0.316-0.581,0.48-0.858c0.165-0.277,0.316-0.563,0.455-0.858
		c0.642,0.312,1.278,0.62,1.911,0.923s1.262,0.611,1.885,0.923v13.026h-2.495V14.706z"/>
	<path d="M173.226,10.389c1.074,0.243,1.915,0.746,2.521,1.509s0.91,1.646,0.91,2.651c0,0.607-0.108,1.17-0.325,1.69
		c-0.217,0.52-0.528,0.971-0.936,1.352c-0.407,0.382-0.901,0.686-1.482,0.911s-1.234,0.338-1.963,0.338
		c-0.728,0-1.378-0.113-1.95-0.338c-0.571-0.225-1.062-0.529-1.469-0.911c-0.407-0.381-0.72-0.832-0.936-1.352
		c-0.218-0.521-0.325-1.083-0.325-1.69c0-1.005,0.299-1.889,0.896-2.651c0.599-0.763,1.443-1.266,2.535-1.509V8.388h2.522V10.389z
		 M171.951,16.837c0.693,0,1.252-0.212,1.677-0.637s0.638-0.976,0.638-1.651c0-0.692-0.213-1.252-0.638-1.677
		s-0.983-0.637-1.677-0.637c-0.676,0-1.227,0.212-1.651,0.637s-0.637,0.984-0.637,1.677c0,0.676,0.212,1.227,0.637,1.651
		S171.275,16.837,171.951,16.837z M173.589,21.621h2.549v4.525h8.216v2.105h-10.765V21.621z M184.224,19.334h-2.522V7.582
		c-0.364-0.243-0.732-0.481-1.104-0.715c-0.373-0.234-0.741-0.464-1.105-0.689c0.139-0.295,0.286-0.581,0.442-0.858
		c0.155-0.277,0.312-0.563,0.468-0.858l3.822,1.846V19.334z"/>
</g>
<g>
	<path fill="#010000" d="M39.682,9.058c-0.254-0.021-0.511-0.03-0.772-0.025c-1.694,0.026-3.257,0.576-4.538,1.489
		c-0.456,0.292-0.713,0.518-0.713,0.518L20.071,22.01l-0.004-0.002l-2.75,2.229c0,0-0.155,0.1-0.166,0.225
		c-0.01,0.125,0.029,0.155,0.104,0.225C19.551,26.79,21.827,25,21.827,25l-0.002-0.003l12.314-10.299l0.604-0.493
		c1.763-1.499,3.032-1.97,3.708-2.115c0.165-0.026,0.333-0.046,0.507-0.057c0.129-0.002,0.255,0.002,0.38,0.01
		c2.609,0.154,4.696,2.296,4.739,4.952c0.043,2.782-2.178,5.075-4.962,5.118c-2.616,0.041-4.797-1.918-5.086-4.466
		c-0.031-0.148-0.05-0.391-0.142-0.413c-0.152-0.037-0.392,0.222-0.392,0.222c-0.67,0.62-1.033,1.271-1.197,1.875
		c-0.238,0.882,0.149,2.123,0.464,2.687c1.102,1.834,3.742,3.141,6.399,3.098c4.44-0.067,7.983-3.725,7.914-8.164
		C47.01,12.766,43.766,9.382,39.682,9.058z"/>
	
		<linearGradient id="SVGID_1_" gradientUnits="userSpaceOnUse" x1="345.0371" y1="-267.4688" x2="374.9336" y2="-267.4688" gradientTransform="matrix(0.9999 -0.0166 -0.0166 -0.9999 -345.0339 -244.611)">
		<stop  offset="0.1398" style="stop-color:#046EB7"/>
		<stop  offset="0.8548" style="stop-color:#264470"/>
	</linearGradient>
	<path fill="url(#SVGID_1_)" d="M30.734,9.307c-2.339-2.06-4.578-0.224-4.578-0.224v0.001l-12.1,10.551l-0.594,0.506
		c-1.73,1.533-2.99,2.03-3.663,2.188c-0.163,0.03-0.333,0.053-0.506,0.067c-0.127,0.006-0.255,0.004-0.381-0.002
		c-2.611-0.101-4.742-2.199-4.838-4.854c-0.068-1.891,0.914-3.572,2.421-4.49c0.004-0.002,0.01-0.004,0.015-0.006
		c0.093-0.051,0.231-0.11,0.303-0.172c0.033-0.028,0.04-0.06,0.052-0.084c0.063-0.123-0.138-0.405-0.138-0.405
		c-0.635-0.881-2.076-0.724-2.089-0.724c-1.583,0.027-2.36,1.461-2.36,1.461c-0.813,1.31-1.261,2.87-1.2,4.527
		c0.149,4.179,3.463,7.497,7.552,7.735c0.253,0.016,0.511,0.021,0.771,0.012c1.693-0.062,3.244-0.644,4.508-1.584
		c0.449-0.299,0.701-0.531,0.701-0.531l13.361-11.246l0.003,0.004l2.707-2.283c0,0,0.151-0.102,0.161-0.228
		C30.847,9.401,30.809,9.374,30.734,9.307z"/>
</g>
</svg>
